<svg width="24" height="24" viewBox="0 0 24 24" fill="none" xmlns="http://www.w3.org/2000/svg">
<g id="heart-tick 1">
<g id="Group">
<path id="Vector" d="M22.0004 17.2C22.0004 18.1 21.7504 18.95 21.3004 19.67C20.8776 20.3805 20.2774 20.9688 19.5586 21.3773C18.8398 21.7858 18.0272 22.0004 17.2004 22C15.4504 22 13.9204 21.06 13.1004 19.67C12.6604 18.95 12.4004 18.1 12.4004 17.2C12.426 15.9439 12.943 14.7479 13.8404 13.8687C14.7378 12.9894 15.9441 12.4969 17.2004 12.4969C18.4567 12.4969 19.663 12.9894 20.5604 13.8687C21.4578 14.7479 21.9748 15.9439 22.0004 17.2Z" stroke="#212121" stroke-width="1.5" stroke-miterlimit="10" stroke-linecap="round" stroke-linejoin="round"/>
<path id="Vector_2" d="M15.3301 17.2L16.5101 18.38L19.0701 16.02" stroke="#212121" stroke-width="1.5" stroke-linecap="round" stroke-linejoin="round"/>
<path id="Vector_3" d="M22 8.68998C22 10.66 21.49 12.4 20.69 13.91C20.242 13.4336 19.7013 13.0538 19.1011 12.7941C18.5009 12.5345 17.854 12.4003 17.2 12.4C14.55 12.4 12.4 14.55 12.4 17.2C12.4 18.43 12.87 19.55 13.63 20.4C13.26 20.57 12.92 20.71 12.62 20.81C12.28 20.93 11.72 20.93 11.38 20.81C8.48 19.82 2 15.69 2 8.68998C2 5.59998 4.49 3.09998 7.56 3.09998C9.37 3.09998 10.99 3.97998 12 5.32998C12.5159 4.63879 13.1857 4.07737 13.9565 3.69027C14.7272 3.30317 15.5775 3.10106 16.44 3.09998C19.51 3.09998 22 5.59998 22 8.68998Z" stroke="#212121" stroke-width="1.5" stroke-linecap="round" stroke-linejoin="round"/>
</g>
</g>
</svg>
