<svg width="38" height="38" viewBox="0 0 38 38" fill="none" xmlns="http://www.w3.org/2000/svg">
<g id="vuesax/bold/setting-5">
<g id="setting-5">
<path id="Vector" d="M28.9631 13.5304C29.7327 13.5304 30.3485 12.9147 30.3485 12.145V4.98699C30.3485 4.21731 29.7327 3.60156 28.9631 3.60156C28.1934 3.60156 27.5776 4.21731 27.5776 4.98699V12.145C27.5776 12.8993 28.2088 13.5304 28.9631 13.5304Z" fill="#1A1E25"/>
<path id="Vector_2" d="M18.9421 25.0757C18.1724 25.0757 17.5566 25.6914 17.5566 26.4611V33.6191C17.5566 34.3888 18.1724 35.0045 18.9421 35.0045C19.7117 35.0045 20.3275 34.3888 20.3275 33.6191V26.4611C20.3275 25.7068 19.7117 25.0757 18.9421 25.0757Z" fill="#1A1E25"/>
<path id="Vector_3" d="M8.92058 13.5304C9.69026 13.5304 10.306 12.9147 10.306 12.145V4.98699C10.306 4.21731 9.69026 3.60156 8.92058 3.60156C8.1509 3.60156 7.53516 4.21731 7.53516 4.98699V12.145C7.53516 12.8993 8.1509 13.5304 8.92058 13.5304Z" fill="#1A1E25"/>
<path id="Vector_4" d="M11.7837 16.4861H6.0573C5.28762 16.4861 4.67188 17.1018 4.67188 17.8715C4.67188 18.6412 5.28762 19.2569 6.0573 19.2569H7.53508V33.6191C7.53508 34.3888 8.15082 35.0046 8.9205 35.0046C9.69018 35.0046 10.3059 34.3888 10.3059 33.6191V19.2569H11.7837C12.5534 19.2569 13.1691 18.6412 13.1691 17.8715C13.1691 17.1018 12.538 16.4861 11.7837 16.4861Z" fill="#1A1E25"/>
<path id="Vector_5" d="M31.8262 16.4861H26.0998C25.3301 16.4861 24.7144 17.1018 24.7144 17.8715C24.7144 18.6412 25.3301 19.2569 26.0998 19.2569H27.5776V33.6191C27.5776 34.3888 28.1933 35.0046 28.963 35.0046C29.7327 35.0046 30.3484 34.3888 30.3484 33.6191V19.2569H31.8262C32.5959 19.2569 33.2116 18.6412 33.2116 17.8715C33.2116 17.1018 32.5959 16.4861 31.8262 16.4861Z" fill="#1A1E25"/>
<path id="Vector_6" d="M21.8052 19.3492H20.3274V4.98699C20.3274 4.21731 19.7117 3.60156 18.942 3.60156C18.1723 3.60156 17.5566 4.21731 17.5566 4.98699V19.3492H16.0788C15.3091 19.3492 14.6934 19.9649 14.6934 20.7346C14.6934 21.5043 15.3091 22.12 16.0788 22.12H21.8052C22.5749 22.12 23.1906 21.5043 23.1906 20.7346C23.1906 19.9649 22.5749 19.3492 21.8052 19.3492Z" fill="#1A1E25"/>
</g>
</g>
</svg>
